# xmcd
#
# Track frame offsets: 
#        150
#        14698
#        34929
#        54369
#        70284
#        83087
#        108025
#        124522
#        144854
#        167407
#        184301
#        200182
#        216006
#        229555
#
# Disc length: 3274 seconds
#
# Revision: 0
# Processed by: cddbd v1.5.2PL0 Copyright (c) Steve Scherf et al.
# Submitted via: ExactAudioCopy v1.0b3
#
DISCID=ba0cc80e
DTITLE=Meschiya Lake - Fooler's Gold
DYEAR=2013
DGENRE=Blues
TTITLE0=Catch em young
TTITLE1=Don't start with me
TTITLE2=My man
TTITLE3=It's the rhythm in me
TTITLE4=I'll wait for you
TTITLE5=Midnight on the bayou
TTITLE6=Fooler's gold
TTITLE7=Young woman's blues
TTITLE8=Satan, you kingdom must come down
TTITLE9=Organ grinder
TTITLE10=Miss Otis regrets
TTITLE11=The fragrance of your charms
TTITLE12=Do right
TTITLE13=I believe in music
EXTD=
EXTT0=
EXTT1=
EXTT2=
EXTT3=
EXTT4=
EXTT5=
EXTT6=
EXTT7=
EXTT8=
EXTT9=
EXTT10=
EXTT11=
EXTT12=
EXTT13=
PLAYORDER=
